<svg width="24" height="25" viewBox="0 0 24 25" fill="none" xmlns="http://www.w3.org/2000/svg">
<path fill-rule="evenodd" clip-rule="evenodd" d="M2.5192 8.32274C2 9.27128 2 10.4155 2 12.7039V14.225C2 18.1258 2 20.0763 3.17157 21.2881C4.34315 22.5 6.22876 22.5 10 22.5H14C17.7712 22.5 19.6569 22.5 20.8284 21.2881C22 20.0763 22 18.1258 22 14.225V12.7039C22 10.4155 22 9.27128 21.4808 8.32274C20.9616 7.37421 20.0131 6.78551 18.116 5.60812L16.116 4.36687C14.1106 3.12229 13.1079 2.5 12 2.5C10.8921 2.5 9.88939 3.12229 7.88403 4.36687L5.88403 5.60813C3.98695 6.78551 3.0384 7.37421 2.5192 8.32274ZM11.25 18.5C11.25 18.9142 11.5858 19.25 12 19.25C12.4142 19.25 12.75 18.9142 12.75 18.5V15.5C12.75 15.0858 12.4142 14.75 12 14.75C11.5858 14.75 11.25 15.0858 11.25 15.5V18.5Z" fill="#202020"/>
</svg>
